<?xml version="1.0" standalone="no"?> <!DOCTYPE svg PUBLIC "-//W3C//DTD SVG 1.0//EN" "http://www.w3.org/TR/2001/REC-SVG-20010904/DTD/svg10.dtd" > <svg xmlns="http://www.w3.org/2000/svg" width="100%" height="100%">
<defs >
<font id="helveticaneueltcom-bdcn" horiz-adv-x="400" ><font-face
    font-family="HelveticaNeueLT Com 57 Cn"
    units-per-em="1000"
    panose-1="2 11 7 6 3 5 2 3 2 4"
    ascent="714"
    descent="-286"
    alphabetic="0" />
<missing-glyph horiz-adv-x="512" d="M222 117V184H278V117H222ZM225 234L223 251Q223 306 236 332T282 391Q314 422 323 438T332 474Q332 510 310 534T256 559Q225 559 203 537T174 464L124 472Q131 543 168 576T259 609Q312 609 347 573T383 478Q383 446 371
420T320 358Q283 325 277 306T271 234H225ZM462 50V667H50V50H462ZM512 718V0H0V718H512Z" />
<glyph unicode=" " glyph-name="space" horiz-adv-x="240" />
<glyph unicode="!" glyph-name="exclam" horiz-adv-x="296" d="M217 132V0H79V132H217ZM98 199L79 482V714H217V482L198 199H98Z" />
<glyph unicode="&quot;" glyph-name="quotedbl" horiz-adv-x="463" d="M72 714H196V393H72V714ZM267 714H391V393H267V714Z" />
<glyph unicode="#" glyph-name="numbersign" horiz-adv-x="480" d="M184 286H281L297 408H199L184 286ZM0 286H87L103 408H30V520H116L138 694H234L213 520H310L332 694H429L407 520H480V408H394L378 286H451V174H365L343 0H246L268 174H170L149 0H52L74 174H0V286Z" />
<glyph unicode="$" glyph-name="dollar" horiz-adv-x="480" d="M205 -14Q143 -9 105 9T45 54T17 117T9 191V212H147Q147 191 148 172T156 136T173 109T205 92V294L155 312Q82 338 50 386T18 504Q18 597 66 647T205 708V777H269V708Q324 703 360 686T417 642T446
584T454 519V505H316Q315 543 305 568T269 602V413L348 381Q376 369 398 355T437 321T462 271T471 200Q471 92 420 43T269 -14V-101H205V-14ZM205 602Q156 588 156 526Q156 470 205 442V602ZM269 92Q300 99 313 121T327 172Q327 210 313 232T269 269V92Z" />
<glyph unicode="%" glyph-name="percent" horiz-adv-x="778" d="M546 725H635L229 -31H140L546 725ZM133 521Q133 461 140 432T177 402Q207 402 214 431T221 521Q221 575 214 603T177 632Q147 632 140 604T133 521ZM27 517Q27 565 33 601T55 661T101 696T177 708Q223
708 252 697T298 661T321 601T327 517Q327 469 321 433T299 373T253 338T177 326Q130 326 101 337T56 373T33 433T27 517ZM451 177Q451 225 457 261T479 321T525 356T601 368Q647 368 676 357T722 321T745 261T751 177Q751 129 745 93T723 33T677 -2T601 -14Q554
-14 525 -3T480 33T457 93T451 177ZM557 181Q557 121 564 92T601 62Q631 62 638 91T645 181Q645 235 638 263T601 292Q571 292 564 264T557 181Z" />
<glyph unicode="&amp;" glyph-name="ampersand" horiz-adv-x="593" d="M426 235Q437 258 444 289T451 343H575Q575 285 555 232T502 132L596 0H443L403 55Q376 23 331 5T231 -14Q163 -14 121 7T54 59T21 126T12 192Q12 255 50 305T156 398L131 435Q116 457 107
474T92 506T85 535T83 564Q83 598 96 626T134 673T191 703T265 714Q311 714 344 703T400 671T432 623T443 565Q443 511 413 468T319 380L426 235ZM223 313Q181 281 166 253T150 192Q150 175 156 159T175 129T207 107T250 98Q307 98 343 143L223 313ZM201 568Q201
538 237 490L254 466L280 488Q304 508 314 527T325 566Q325 595 308 610T262 626Q236 626 219 611T201 568Z" />
<glyph unicode="&apos;" glyph-name="quotesingle" horiz-adv-x="260" d="M68 714H192V393H68V714Z" />
<glyph unicode="(" glyph-name="parenleft" horiz-adv-x="296" d="M296 714Q265 657 243 604T208 496T188 386T182 265Q182 201 188 145T207 34T243 -73T296 -184H190Q115 -66 83 46T50 265Q50 371 82 483T190 714H296Z" />
<glyph unicode=")" glyph-name="parenright" horiz-adv-x="296" d="M106 714Q181 596 213 484T246 265Q246 159 214 47T106 -184H0Q31 -127 53 -74T88 34T108 144T114 265Q114 329 108 385T89 496T53 603T0 714H106Z" />
<glyph unicode="*" glyph-name="asterisk" horiz-adv-x="390" d="M236 714V586L358 626L383 548L261 508L337 404L270 356L195 460L120 356L53 404L129 508L7 548L32 626L154 586V714H236Z" />
<glyph unicode="+" glyph-name="plus" horiz-adv-x="600" d="M238 191H47V315H238V506H362V315H553V191H362V0H238V191Z" />
<glyph unicode="," glyph-name="comma" horiz-adv-x="240" d="M186 156V26Q186 -14 181 -47T160 -105T120 -145T54 -165V-95Q80 -90 93 -67T106 -16V0H54V156H186Z" />
<glyph unicode="-" glyph-name="hyphen" horiz-adv-x="370" d="M326 348V230H44V348H326Z" />
<glyph unicode="." glyph-name="period" horiz-adv-x="240" d="M186 156V0H54V156H186Z" />
<glyph unicode="/" glyph-name="slash" horiz-adv-x="332" d="M223 728H335L109 -14H-3L223 728Z" />
<glyph unicode="0" glyph-name="zero" horiz-adv-x="480" d="M18 330Q18 403 23 471T50 592T116 676T240 708Q304 708 347 690T415 630T451 524T462 364Q462 290 457 222T430 102T364 18T240 -14Q175 -14 133 4T65 64T29 170T18 330ZM162 299Q162 232 165 190T178
123T202 89T240 80Q264 80 279 91T302 130T314 204T318 318V395Q318 462 315 504T302 571T278 605T240 614Q216 614 201 603T178 564T166 490T162 376V299Z" />
<glyph unicode="1" glyph-name="one" horiz-adv-x="480" d="M182 0V500H41V594H54Q126 594 167 621T220 708H326V0H182Z" />
<glyph unicode="2" glyph-name="two" horiz-adv-x="480" d="M454 0H18Q18 47 27 88T56 166T105 238T174 310L232 364Q256 385 270 403T293 439T303 478T306 526Q306 614 236 614Q209 614 194 603T170 573T159 529T156 476H18V503Q18 602 71 655T238 708Q346 708
398 658T450 515Q450 480 444 451T425 395T391 343T340 290L260 216Q228 187 210 160T187 112H454V0Z" />
<glyph unicode="3" glyph-name="three" horiz-adv-x="480" d="M158 207Q159 145 174 113T237 80Q263 80 278 89T302 113T313 150T316 194Q316 218 313 239T299 278T271 305T223 315H175V409H222Q244 409 260 418T285 443T299 479T304 521Q304 572 287 593T235
614Q212 614 198 606T175 582T165 545T162 499H30Q30 605 83 656T238 708Q335 708 388 664T442 526Q442 462 414 422T334 370V368Q403 357 431 313T460 201Q460 165 451 127T416 58T344 6T225 -14Q122 -14 71 43T20 204V207H158Z" />
<glyph unicode="4" glyph-name="four" horiz-adv-x="480" d="M14 265L249 708H398V259H466V147H398V0H266V147H14V265ZM266 528H264L126 259H266V528Z" />
<glyph unicode="5" glyph-name="five" horiz-adv-x="480" d="M425 582H164L149 421H151Q171 449 203 461T281 474Q332 474 365 455T418 403T446 331T454 248Q454 189 444 141T409 59T339 5T227 -14Q159 -14 118 5T55 54T26 118T18 183V202H156Q156 184 158 164T167
127T189 98T226 86Q271 86 290 120T310 224Q310 268 306 297T293 343T267 367T227 374Q196 374 180 357T159 309H30L56 694H425V582Z" />
<glyph unicode="6" glyph-name="six" horiz-adv-x="480" d="M165 220Q165 190 168 164T179 120T203 91T244 80Q270 80 285 90T309 120T319 164T322 220Q322 292 304 323T244 354Q201 354 183 323T165 220ZM311 528Q311 570 297 592T246 614Q217 614 200 601T174
563T161 506T158 434V399H160Q178 427 211 443T293 460Q340 460 373 444T426 398T456 328T466 239Q466 116 412 51T237 -14Q163 -14 119 13T51 86T21 192T14 317Q14 392 18 462T45 587T116 675T252 708Q290 708 325 699T388 669T431 614T449 528H311Z" />
<glyph unicode="7" glyph-name="seven" horiz-adv-x="480" d="M458 694V584Q414 522 380 451T319 305T276 153T250 0H99Q107 64 123 134T165 278T230 425T320 570H22V694H458Z" />
<glyph unicode="8" glyph-name="eight" horiz-adv-x="480" d="M158 202Q158 176 161 154T174 116T200 90T240 80Q264 80 280 89T305 115T318 154T322 202Q322 227 319 249T306 288T280 314T240 324Q216 324 200 315T175 289T162 250T158 202ZM170 517Q170 466
189 442T240 418Q272 418 291 442T310 517Q310 614 240 614Q170 614 170 517ZM14 200Q14 267 44 315T134 375V377Q105 384 86 399T54 433T37 473T32 513Q32 617 87 662T240 708Q337 708 392 663T448 513Q448 494 443 473T425 433T394 399T346 377V375Q406 363 436
315T466 200Q466 170 459 133T427 63T359 8T240 -14Q166 -14 122 8T53 62T22 132T14 200Z" />
<glyph unicode="9" glyph-name="nine" horiz-adv-x="480" d="M158 474Q158 402 176 371T236 340Q279 340 297 371T315 474Q315 504 312 530T301 574T277 603T236 614Q210 614 195 604T171 574T161 530T158 474ZM169 165Q169 125 183 103T234 80Q262 80 279 93T306
131T319 188T322 260V294H320Q302 267 269 251T187 234Q140 234 107 250T54 296T24 366T14 455Q14 578 68 643T243 708Q317 708 361 681T428 608T459 502T466 377Q466 302 462 232T435 107T364 19T228 -14Q190 -14 155 -5T92 24T49 79T31 165H169Z" />
<glyph unicode=":" glyph-name="colon" horiz-adv-x="240" d="M54 521H186V365H54V521ZM54 156H186V0H54V156Z" />
<glyph unicode=";" glyph-name="semicolon" horiz-adv-x="240" d="M186 521V365H54V521H186ZM186 156V26Q186 -14 181 -47T160 -105T120 -145T54 -165V-95Q80 -90 93 -67T106 -16V0H54V156H186Z" />
<glyph unicode="&lt;" glyph-name="less" horiz-adv-x="600" d="M47 306L553 514V390L215 253L553 116V-8L47 200V306Z" />
<glyph unicode="=" glyph-name="equal" horiz-adv-x="600" d="M47 206H553V82H47V206ZM47 424H553V300H47V424Z" />
<glyph unicode="&gt;" glyph-name="greater" horiz-adv-x="600" d="M47 116L385 253L47 390V514L553 306V200L47 -8V116Z" />
<glyph unicode="?" glyph-name="question" horiz-adv-x="481" d="M300 132V0H162V132H300ZM36 493V516Q36 561 48 599T85 664T147 706T234 722Q340 722 392 670T445 529Q445 487 432 451T382 373L342 328Q316 299 305 275T293 213V198H169V237Q169 287 183 321T231
394L269 437Q290 460 298 486T307 543Q307 581 290 604T239 628Q201 628 185 598T168 518V493H36Z" />
<glyph unicode="@" glyph-name="at" horiz-adv-x="800" d="M535 541H623L565 291Q559 262 559 250Q559 230 579 230Q594 230 612 242T645 277T672 332T683 404Q683 454 661 496T602 569T517 617T417 634Q358 634 308 611T220 549T162 460T141 356Q141 299 164
249T225 161T315 102T424 80Q493 80 546 99T641 144H730Q676 69 595 28T400 -14Q323 -14 256 15T138 94T58 212T29 357Q29 434 58 501T137 619T255 699T400 728Q475 728 542 707T660 645T741 550T771 425Q771 372 757 331T721 257T670 203T614 166T561 146T520
139Q460 139 455 192H453Q433 171 403 155T333 139Q306 139 280 150T234 184T200 237T187 309Q187 355 202 399T245 477T312 533T401 555Q439 555 469 539T522 488L535 541ZM299 326Q299 293 318 269T370 245Q395 245 416 256T453 286T477 327T486 373Q486 405
464 427T411 449Q387 449 367 438T331 408T308 369T299 326Z" />
<glyph unicode="A" glyph-name="A" horiz-adv-x="556" d="M208 269H348L279 590H277L208 269ZM189 714H367L556 0H406L373 151H183L150 0H0L189 714Z" />
<glyph unicode="B" glyph-name="B" horiz-adv-x="556" d="M194 106H250Q302 106 334 129T366 214Q366 245 358 265T335 298T300 316T256 321H194V106ZM194 421H235Q295 421 322 442T350 515Q350 566 325 587T246 608H194V421ZM50 714H291Q335 714 372 705T437
675T479 619T494 533Q494 475 467 434T386 377V375Q446 367 481 324T516 209Q516 167 505 129T468 63T399 17T293 0H50V714Z" />
<glyph unicode="C" glyph-name="C" horiz-adv-x="537" d="M355 473Q355 551 337 586T269 622Q242 622 225 608T197 561T183 476T179 347Q179 266 184 216T201 139T230 102T271 92Q290 92 306 98T335 124T354 179T361 273H505Q505 215 496 163T463 72T394 9T278
-14Q197 -14 149 13T76 90T43 207T35 357Q35 438 42 506T75 624T149 700T278 728Q355 728 399 703T466 640T493 557T499 473H355Z" />
<glyph unicode="D" glyph-name="D" horiz-adv-x="574" d="M201 106H265Q302 106 325 119T362 162T380 241T385 363Q385 424 381 469T365 546T328 592T262 608H201V106ZM57 714H293Q368 714 414 690T485 620T520 510T529 367Q529 272 518 203T478 89T403 22T284 0H57V714Z" />
<glyph unicode="E" glyph-name="E" horiz-adv-x="481" d="M449 714V596H194V428H434V310H194V118H459V0H50V714H449Z" />
<glyph unicode="F" glyph-name="F" horiz-adv-x="463" d="M50 714H449V596H194V428H434V310H194V0H50V714Z" />
<glyph unicode="G" glyph-name="G" horiz-adv-x="556" d="M367 502Q367 521 363 542T348 581T323 610T285 622Q233 622 210 564T187 372Q187 307 191 256T205 168T235 112T286 92Q299 92 314 99T343 120T366 155T375 206V279H280V385H513V0H407V66H405Q379 24
343 5T255 -14Q189 -14 148 10T83 83T51 201T43 365Q43 455 54 523T94 636T168 705T283 728Q401 728 453 670T505 502H367Z" />
<glyph unicode="H" glyph-name="H" horiz-adv-x="556" d="M50 714H194V441H362V714H506V0H362V317H194V0H50V714Z" />
<glyph unicode="I" glyph-name="I" horiz-adv-x="258" d="M57 0V714H201V0H57Z" />
<glyph unicode="J" glyph-name="J" horiz-adv-x="463" d="M419 714V200Q419 86 366 36T204 -14Q147 -14 111 3T53 48T23 115T15 195V226H147V204Q147 147 159 120T211 92Q250 92 262 119T275 204V714H419Z" />
<glyph unicode="K" glyph-name="K" horiz-adv-x="537" d="M194 714V428H196L378 714H534L340 408L556 0H394L247 293L194 212V0H50V714H194Z" />
<glyph unicode="L" glyph-name="L" horiz-adv-x="463" d="M50 0V714H194V118H449V0H50Z" />
<glyph unicode="M" glyph-name="M" horiz-adv-x="740" d="M53 714H267L369 210H371L474 714H687V0H555V570H553L426 0H314L187 570H185V0H53V714Z" />
<glyph unicode="N" glyph-name="N" horiz-adv-x="574" d="M216 714L390 225H392V714H524V0H360L184 500H182V0H50V714H216Z" />
<glyph unicode="O" glyph-name="O" horiz-adv-x="556" d="M35 357Q35 438 42 506T75 624T149 700T278 728Q359 728 407 701T480 624T513 507T521 357Q521 276 514 208T481 90T407 14T278 -14Q197 -14 149 13T76 90T43 207T35 357ZM179 357Q179 285 182 235T196
153T226 107T278 92Q310 92 329 106T359 152T373 234T377 357Q377 429 374 479T360 561T330 607T278 622Q246 622 227 608T197 561T183 479T179 357Z" />
<glyph unicode="P" glyph-name="P" horiz-adv-x="519" d="M194 391H258Q301 391 327 417T354 498Q354 552 331 580T254 608H194V391ZM50 714H302Q357 714 394 696T455 647T488 579T498 500Q498 444 482 404T436 337T364 298T271 285H194V0H50V714Z" />
<glyph unicode="Q" glyph-name="Q" horiz-adv-x="556" d="M179 357Q179 285 182 235T196 153T226 107T278 92Q310 92 329 106T359 152T373 234T377 357Q377 429 374 479T360 561T330 607T278 622Q246 622 227 608T197 561T183 479T179 357ZM458 -88L373 0Q350
-8 329 -11Q306 -14 278 -14Q197 -14 149 13T76 90T43 207T35 357Q35 438 42 506T75 624T149 700T278 728Q359 728 407 701T480 624T513 507T521 357Q521 266 511 192T466 67L543 -11L458 -88Z" />
<glyph unicode="R" glyph-name="R" horiz-adv-x="556" d="M50 714H316Q406 714 456 669T506 530Q506 458 477 413T387 354V352Q424 347 446 334T480 295T496 230T502 134Q503 77 508 47T534 6V0H378Q367 15 364 34T360 75L356 212Q354 254 335 278T271 302H194V0H50V714ZM194
402H254Q306 402 334 426T362 509Q362 608 262 608H194V402Z" />
<glyph unicode="S" glyph-name="S" horiz-adv-x="519" d="M166 223V202Q166 177 170 157T185 122T214 100T261 92Q294 92 320 113T347 180Q347 204 341 221T319 253T280 278T219 302Q171 318 136 337T78 381T43 440T32 518Q32 624 91 676T253 728Q301 728 341
718T411 684T457 624T474 536V516H336Q336 567 318 594T258 622Q234 622 218 615T193 597T180 570T176 539Q176 506 190 484T250 442L361 394Q401 376 427 357T469 315T491 265T497 205Q497 92 432 39T249 -14Q127 -14 75 40T22 194V223H166Z" />
<glyph unicode="T" glyph-name="T" horiz-adv-x="480" d="M468 714V596H312V0H168V596H12V714H468Z" />
<glyph unicode="U" glyph-name="U" horiz-adv-x="538" d="M185 714V216Q185 189 188 167T201 128T227 102T269 92Q294 92 310 101T336 127T349 166T353 216V714H497V216Q497 148 478 104T427 33T354 -3T269 -14Q225 -14 184 -5T111 29T60 99T41 216V714H185Z" />
<glyph unicode="V" glyph-name="V" horiz-adv-x="519" d="M157 714L258 186H261L367 714H516L352 0H167L3 714H157Z" />
<glyph unicode="W" glyph-name="W" horiz-adv-x="760" d="M8 714H146L225 186H227L311 714H449L533 186H535L614 714H752L622 0H461L381 518H379L299 0H138L8 714Z" />
<glyph unicode="X" glyph-name="X" horiz-adv-x="537" d="M20 714H179L271 483L362 714H519L353 361L531 0H369L266 242L164 0H6L184 361L20 714Z" />
<glyph unicode="Y" glyph-name="Y" horiz-adv-x="520" d="M165 714L259 438H261L361 714H517L332 281V0H188V281L3 714H165Z" />
<glyph unicode="Z" glyph-name="Z" horiz-adv-x="481" d="M24 105L287 596H42V714H453V605L186 118H457V0H24V105Z" />
<glyph unicode="[" glyph-name="bracketleft" horiz-adv-x="315" d="M80 714H309V614H204V-84H309V-184H80V714Z" />
<glyph unicode="\" glyph-name="backslash" horiz-adv-x="332" d="M-3 728H109L335 -14H223L-3 728Z" />
<glyph unicode="]" glyph-name="bracketright" horiz-adv-x="315" d="M6 -84H111V614H6V714H235V-184H6V-84Z" />
<glyph unicode="^" glyph-name="asciicircum" horiz-adv-x="600" d="M56 309L244 694H356L544 309H420L300 556L180 309H56Z" />
<glyph unicode="_" glyph-name="underscore" horiz-adv-x="500" d="M0 -125V-75H500V-125H0Z" />
<glyph unicode="`" glyph-name="grave" horiz-adv-x="222" d="M82 602L-16 746H122L176 602H82Z" />
<glyph unicode="a" glyph-name="a" horiz-adv-x="481" d="M45 373V386Q45 432 60 464T100 515T160 543T234 552Q295 552 333 540T393 506T421 454T429 387V104Q429 66 432 45T446 0H314Q307 13 304 27T297 56H295Q271 14 240 0T158 -14Q122 -14 97 0T57 36T35
85T28 140Q28 178 36 205T60 252T102 285T164 308L242 329Q273 337 285 351T297 392Q297 423 283 440T233 458Q201 458 185 439T169 388V373H45ZM297 269Q283 258 267 252T238 242Q196 233 178 212T160 155Q160 124 172 102T212 80Q226 80 241 84T268 99T289 124T297
163V269Z" />
<glyph unicode="b" glyph-name="b" horiz-adv-x="500" d="M46 714H184V488H186Q208 520 235 536T302 552Q387 552 427 486T467 269Q467 119 427 53T302 -14Q260 -14 232 2T180 57H178V0H46V714ZM184 269Q184 181 197 137T257 92Q302 92 315 136T329 269Q329 357
316 401T257 446Q211 446 198 402T184 269Z" />
<glyph unicode="c" glyph-name="c" horiz-adv-x="463" d="M305 344Q305 363 303 382T294 417T275 442T243 452Q217 452 202 441T178 407T167 349T164 268Q164 218 167 183T178 124T200 91T238 80Q273 80 289 110T305 206H437Q437 100 390 43T232 -14Q180 -14 142
0T78 46T39 133T26 269Q26 352 42 406T87 493T156 539T244 552Q340 552 388 496T437 344H305Z" />
<glyph unicode="d" glyph-name="d" horiz-adv-x="500" d="M322 57H320Q297 19 269 3T198 -14Q113 -14 73 52T33 269Q33 419 73 485T198 552Q237 552 264 536T314 488H316V714H454V0H322V57ZM171 269Q171 181 184 137T243 92Q289 92 302 136T316 269Q316 357 303
401T243 446Q198 446 185 402T171 269Z" />
<glyph unicode="e" glyph-name="e" horiz-adv-x="463" d="M164 248V205Q164 181 167 159T179 119T200 91T232 80Q267 80 283 105T305 181H429Q425 87 379 37T234 -14Q159 -14 117 12T55 79T31 172T26 274Q26 328 33 378T63 467T128 529T240 552Q300 552 338 533T399
478T429 392T437 279V248H164ZM305 330Q304 361 301 384T291 424T270 449T235 458Q214 458 201 449T179 424T168 389T164 351V330H305Z" />
<glyph unicode="f" glyph-name="f" horiz-adv-x="296" d="M76 444H6V538H76V599Q76 635 86 660T114 700T160 721T220 728Q256 728 294 725V627Q289 628 280 628H267Q238 628 226 618T214 585V538H294V444H214V0H76V444Z" />
<glyph unicode="g" glyph-name="g" horiz-adv-x="500" d="M173 252Q173 224 175 199T185 155T206 124T242 112Q264 112 278 123T301 155T313 203T317 266Q317 364 302 405T245 446Q222 446 208 436T186 404T176 344T173 252ZM449 538V27Q449 -81 398 -132T225
-184Q137 -184 90 -147T42 -40H174Q174 -66 195 -81Q205 -88 216 -92T241 -96Q283 -96 300 -69T317 1V72H315Q294 42 264 24T200 6Q118 6 77 68T35 278Q35 325 40 374T63 462T114 527T204 552Q233 552 264 536T315 478H317V538H449Z" />
<glyph unicode="h" glyph-name="h" horiz-adv-x="500" d="M46 714H184V483H186Q226 552 317 552Q383 552 418 516T454 399V0H316V371Q316 413 302 429T257 446Q184 446 184 357V0H46V714Z" />
<glyph unicode="i" glyph-name="i" horiz-adv-x="240" d="M51 722H189V604H51V722ZM51 538H189V0H51V538Z" />
<glyph unicode="j" glyph-name="j" horiz-adv-x="240" d="M51 722H189V604H51V722ZM51 538H189V-37Q189 -71 182 -97T156 -140T108 -167T31 -176Q19 -176 5 -176T-25 -174V-74Q-19 -76 -14 -76H-3Q15 -76 26 -71T42 -56T49 -29T51 10V538Z" />
<glyph unicode="k" glyph-name="k" horiz-adv-x="500" d="M189 714V337H191L330 538H482L327 326L505 0H353L238 221L189 157V0H51V714H189Z" />
<glyph unicode="l" glyph-name="l" horiz-adv-x="240" d="M51 714H189V0H51V714Z" />
<glyph unicode="m" glyph-name="m" horiz-adv-x="758" d="M46 538H178V483H180Q206 520 238 536T316 552Q364 552 396 530T440 466H442Q458 509 493 530T578 552Q647 552 679 511T712 391V0H574V376Q574 410 562 428T520 446Q487 446 468 424T448 354V0H310V376Q310
410 298 428T256 446Q223 446 204 424T184 354V0H46V538Z" />
<glyph unicode="n" glyph-name="n" horiz-adv-x="500" d="M46 538H178V475H180Q202 515 237 533T317 552Q383 552 418 516T454 399V0H316V371Q316 413 302 429T257 446Q184 446 184 357V0H46V538Z" />
<glyph unicode="o" glyph-name="o" horiz-adv-x="480" d="M28 269Q28 338 39 391T75 479T140 533T240 552Q302 553 343 536T408 482T442 393T452 269Q452 200 441 147T405 59T340 5T240 -14Q178 -15 137 2T72 56T38 145T28 269ZM166 269Q166 228 168 193T177 133T199
94T240 80Q282 80 298 124T314 269Q314 370 298 414T240 458Q214 458 200 444T178 405T168 345T166 269Z" />
<glyph unicode="p" glyph-name="p" horiz-adv-x="500" d="M46 538H178V481H180Q203 519 231 535T302 552Q387 552 427 486T467 269Q467 119 427 53T302 -14Q263 -14 236 2T186 50H184V-176H46V538ZM184 269Q184 181 197 137T257 92Q302 92 315 136T329 269Q329
357 316 401T257 446Q211 446 198 402T184 269Z" />
<glyph unicode="q" glyph-name="q" horiz-adv-x="500" d="M316 50H314Q292 18 265 2T198 -14Q113 -14 73 52T33 269Q33 419 73 485T198 552Q240 552 268 536T320 481H322V538H454V-176H316V50ZM316 269Q316 357 303 401T243 446Q198 446 185 402T171 269Q171 181
184 137T243 92Q289 92 302 136T316 269Z" />
<glyph unicode="r" glyph-name="r" horiz-adv-x="333" d="M46 538H178V466H180Q201 505 231 528T304 552Q310 552 316 552T329 550V418Q318 419 308 419T286 420Q268 420 250 415T217 399T193 369T184 323V0H46V538Z" />
<glyph unicode="s" glyph-name="s" horiz-adv-x="444" d="M147 176V158Q147 123 165 102T219 80Q251 80 270 96T289 144Q289 170 274 183T239 205L142 240Q85 260 56 296T27 390Q27 423 38 452T73 504T134 539T225 552Q319 552 364 512T409 399V377H285Q285 419
272 438T224 458Q198 458 179 444T159 400Q159 380 171 364T219 337L302 309Q367 287 394 252T421 155Q421 113 406 81T365 28T301 -3T221 -14Q162 -14 124 -2T64 32T32 86T23 157V176H147Z" />
<glyph unicode="t" glyph-name="t" horiz-adv-x="296" d="M76 692H214V538H294V444H214V153Q214 121 223 108T263 94Q271 94 279 94T294 96V0Q271 -2 250 -4T204 -6Q163 -6 138 1T100 24T81 68T76 136V444H6V538H76V692Z" />
<glyph unicode="u" glyph-name="u" horiz-adv-x="500" d="M322 63H320Q298 23 263 5T183 -14Q117 -14 82 22T46 139V538H184V167Q184 125 198 109T243 92Q316 92 316 181V538H454V0H322V63Z" />
<glyph unicode="v" glyph-name="v" horiz-adv-x="444" d="M301 538H439L304 0H144L5 538H149L226 153H228L301 538Z" />
<glyph unicode="w" glyph-name="w" horiz-adv-x="704" d="M7 538H145L208 156H210L277 538H427L498 156H500L565 538H697L581 0H424L353 382H351L284 0H124L7 538Z" />
<glyph unicode="x" glyph-name="x" horiz-adv-x="462" d="M305 538H449L309 277L455 0H311L231 176L151 0H7L153 277L13 538H157L231 376L305 538Z" />
<glyph unicode="y" glyph-name="y" horiz-adv-x="444" d="M46 -73Q64 -76 82 -76Q120 -76 136 -56T156 0L5 538H149L229 166H231L301 538H439L309 36Q303 -2 281 -59T236 -139T182 -169T102 -176H46V-73Z" />
<glyph unicode="z" glyph-name="z" horiz-adv-x="426" d="M24 106L239 426H34V538H402V432L187 112H402V0H24V106Z" />
<glyph unicode="{" glyph-name="braceleft" horiz-adv-x="315" d="M30 306Q55 306 75 329T96 387V580Q96 644 122 679T200 714H289V614H259Q235 614 228 593T220 542V376Q220 331 200 302T148 266V264Q180 258 200 229T220 154V-12Q220 -41 227 -62T259 -84H289V-184H200Q149
-184 123 -149T96 -50V143Q96 178 76 201T30 224V306Z" />
<glyph unicode="|" glyph-name="bar" horiz-adv-x="222" d="M49 728H173V-14H49V728Z" />
<glyph unicode="}" glyph-name="braceright" horiz-adv-x="315" d="M26 -84H56Q80 -84 87 -63T95 -12V154Q95 199 115 228T167 264V266Q135 272 115 301T95 376V542Q95 571 88 592T56 614H26V714H115Q166 714 192 679T219 580V387Q219 352 239 329T285 306V224Q260
224 240 201T219 143V-50Q219 -114 193 -149T115 -184H26V-84Z" />
<glyph unicode="~" glyph-name="asciitilde" horiz-adv-x="600" d="M531 243Q511 205 482 181T408 157Q374 157 347 166T290 191Q269 202 255 208T230 219T211 224T195 225Q180 225 166 218T140 201T118 178T105 157L69 263Q89 301 118 325T192 349Q245 349 301
320Q342 298 363 290T405 281Q420 281 434 288T460 305T482 328T495 349L531 243Z" />
</font>
</defs>
</svg>
